#N canvas 51 13 885 592 10;
#X obj 42 15 r digital;
#X obj 42 33 t f f;
#X obj 259 306 s S_D13_R;
#X obj 242 324 s S_D12_R;
#X obj 225 342 s S_D11_R;
#X obj 209 360 s S_D10_R;
#X obj 193 378 s S_D9_R;
#X obj 176 396 s S_D8_R;
#X obj 159 414 s S_D7_R;
#X obj 142 432 s S_D6_R;
#X obj 125 450 s S_D5_R;
#X obj 108 468 s S_D4_R;
#X obj 92 486 s S_D3_R;
#X obj 75 504 s S_D2_R;
#X obj 58 522 s S_D1_R;
#X obj 42 540 s S_D0_R;
#X obj 444 90 float 0;
#X obj 444 111 s block;
#X obj 42 482 spigot;
#X obj 53 463 r 0d;
#X obj 58 443 spigot;
#X obj 69 424 r 1d;
#X obj 75 405 spigot;
#X obj 92 366 spigot;
#X obj 108 328 spigot;
#X obj 125 289 spigot;
#X obj 142 251 spigot;
#X obj 159 212 spigot;
#X obj 176 331 spigot;
#X obj 193 292 spigot;
#X obj 209 254 spigot;
#X obj 225 215 spigot;
#X obj 242 177 spigot;
#X obj 259 138 spigot;
#X obj 86 386 r 2d;
#X obj 103 347 r 3d;
#X obj 119 309 r 4d;
#X obj 136 270 r 5d;
#X obj 153 232 r 6d;
#X obj 170 193 r 7d;
#X obj 187 312 r 8d;
#X obj 204 273 r 9d;
#X obj 220 235 r 10d;
#X obj 236 196 r 11d;
#X obj 254 158 r 12d;
#X obj 270 119 r 13d;
#X obj 421 32 r b100;
#X obj 42 78 demux 1 2 3 4 5 6 7 8 9 10 11 12 13 14 15 16 17 18 19
20 21 22;
#X obj 274 420 spigot;
#X obj 292 381 spigot;
#X obj 309 343 spigot;
#X obj 326 304 spigot;
#X obj 342 266 spigot;
#X obj 359 227 spigot;
#X obj 376 189 spigot;
#X obj 393 150 spigot;
#X obj 274 517 spigot;
#X obj 292 478 spigot;
#X obj 309 440 spigot;
#X obj 326 401 spigot;
#X obj 342 363 spigot;
#X obj 359 324 spigot;
#X obj 376 286 spigot;
#X obj 391 247 spigot;
#X obj 285 401 r 14d;
#X obj 303 362 r 15d;
#X obj 320 324 r 16d;
#X obj 337 285 r 17d;
#X obj 353 247 r 18d;
#X obj 370 208 r 19d;
#X obj 387 170 r 20d;
#X obj 404 131 r 21d;
#X obj 285 498 r 0A;
#X obj 303 459 r 1A;
#X obj 320 421 r 2A;
#X obj 337 382 r 3A;
#X obj 353 344 r 4A;
#X obj 370 305 r 5A;
#X obj 387 267 r 6A;
#X obj 402 227 r 7A;
#X obj 274 580 s S_A0_R;
#X obj 292 562 s S_A1_R;
#X obj 309 544 s S_A2_R;
#X obj 327 526 s S_A3_R;
#X obj 343 508 s S_A4_R;
#X obj 360 490 s S_A5_R;
#X obj 376 472 s S_A6_R;
#X obj 391 454 s S_A7_R;
#X obj 393 50 counter 21;
#X obj 444 69 select 21;
#X text 539 22 by: "I/O" - Roberto Becerra;
#X text 538 37 io_robertob@hotmail.com;
#X text 540 52 http://iobridger.wordpress.com;
#X text 537 100 io_cdc_pinguino_control_Dreports;
#X text 536 116 Receives Digital data from COM Port and;
#X text 536 132 distributes demultiplexes to direct it to;
#X text 536 145 corresponding state toggles.;
#X text 540 65 24/07/2013;
#X connect 0 0 1 0;
#X connect 1 0 47 0;
#X connect 1 1 88 0;
#X connect 16 0 17 0;
#X connect 18 0 15 0;
#X connect 19 0 18 1;
#X connect 20 0 14 0;
#X connect 21 0 20 1;
#X connect 22 0 13 0;
#X connect 23 0 12 0;
#X connect 24 0 11 0;
#X connect 25 0 10 0;
#X connect 26 0 9 0;
#X connect 27 0 8 0;
#X connect 28 0 7 0;
#X connect 29 0 6 0;
#X connect 30 0 5 0;
#X connect 31 0 4 0;
#X connect 32 0 3 0;
#X connect 33 0 2 0;
#X connect 34 0 22 1;
#X connect 35 0 23 1;
#X connect 36 0 24 1;
#X connect 37 0 25 1;
#X connect 38 0 26 1;
#X connect 39 0 27 1;
#X connect 40 0 28 1;
#X connect 41 0 29 1;
#X connect 42 0 30 1;
#X connect 43 0 31 1;
#X connect 44 0 32 1;
#X connect 45 0 33 1;
#X connect 46 0 88 2;
#X connect 47 0 18 0;
#X connect 47 1 20 0;
#X connect 47 2 22 0;
#X connect 47 3 23 0;
#X connect 47 4 24 0;
#X connect 47 5 25 0;
#X connect 47 6 26 0;
#X connect 47 7 27 0;
#X connect 47 8 28 0;
#X connect 47 9 29 0;
#X connect 47 10 30 0;
#X connect 47 11 31 0;
#X connect 47 12 32 0;
#X connect 47 13 33 0;
#X connect 47 14 48 0;
#X connect 47 15 49 0;
#X connect 47 16 50 0;
#X connect 47 17 51 0;
#X connect 47 18 52 0;
#X connect 47 19 53 0;
#X connect 47 20 54 0;
#X connect 47 21 55 0;
#X connect 48 0 56 0;
#X connect 49 0 57 0;
#X connect 50 0 58 0;
#X connect 51 0 59 0;
#X connect 52 0 60 0;
#X connect 53 0 61 0;
#X connect 54 0 62 0;
#X connect 55 0 63 0;
#X connect 56 0 80 0;
#X connect 57 0 81 0;
#X connect 58 0 82 0;
#X connect 59 0 83 0;
#X connect 60 0 84 0;
#X connect 61 0 85 0;
#X connect 62 0 86 0;
#X connect 63 0 87 0;
#X connect 64 0 48 1;
#X connect 65 0 49 1;
#X connect 66 0 50 1;
#X connect 67 0 51 1;
#X connect 68 0 52 1;
#X connect 69 0 53 1;
#X connect 70 0 54 1;
#X connect 71 0 55 1;
#X connect 72 0 56 1;
#X connect 73 0 57 1;
#X connect 74 0 58 1;
#X connect 75 0 59 1;
#X connect 76 0 60 1;
#X connect 77 0 61 1;
#X connect 78 0 62 1;
#X connect 79 0 63 1;
#X connect 88 0 47 1;
#X connect 88 0 89 0;
#X connect 89 0 16 0;
