#N canvas 61 82 1009 526 10;
#X floatatom 147 54 5 0 0 0 - Port -;
#X obj 147 77 prepend open;
#X msg 147 124 open 6;
#X obj 147 100 prepend set;
#X obj 120 100 bng 15 250 50 0 empty Open empty 17 7 0 10 -262144 -1
-1;
#X text 185 52 Port Number;
#X obj 268 144 comport 9600;
#X msg 269 88 devices;
#X obj 229 251 select 50;
#X obj 288 253 bng 15 250 50 0 Button empty empty 17 7 0 10 -262144
-1 -1;
#X obj 267 115 r toCom;
#X obj 342 371 spigot;
#X obj 317 279 select 100;
#X obj 319 220 select 200;
#X obj 225 373 spigot;
#X obj 289 324 float 1;
#X obj 229 327 float 0;
#X obj 405 323 float 1;
#X obj 344 323 float 0;
#X obj 268 170 t f f;
#X obj 225 407 s digital;
#X obj 179 356 r block;
#X obj 288 386 s b100;
#X obj 229 293 r conIn;
#X obj 344 299 r conIn;
#X obj 288 362 bng 15 250 50 0 empty empty empty 17 7 0 10 -262144
-1 -1;
#X obj 268 68 bng 15 250 50 0 empty Devices empty 17 7 0 10 -262144
-1 -1;
#X msg 348 110 close;
#X obj 348 86 bng 15 250 50 0 empty Close empty 17 7 0 10 -262144 -1
-1;
#X text 2 99 Open Selected Port;
#X text 369 87 Close Port;
#X text 285 68 Print Devices;
#X obj 546 448 pack f f f;
#X floatatom 537 426 5 0 0 0 - - -;
#X floatatom 574 425 5 0 0 0 - - -;
#X obj 622 406 tgl 15 0 empty empty empty 17 7 0 10 -262144 -1 -1 1
1;
#X obj 484 493 s toCom;
#X obj 537 382 r b1;
#X obj 574 380 r b2;
#X obj 609 381 r b3;
#X floatatom 609 426 5 0 0 0 - - -;
#X obj 342 405 s analog;
#X obj 413 378 bng 15 250 50 0 empty empty empty 17 7 0 10 -262144
-1 -1;
#X obj 413 402 s b200;
#X obj 452 354 r blockA;
#X text 447 10 by: "I/O" - Roberto Becerra;
#X text 446 25 io_robertob@hotmail.com;
#X text 448 40 http://iobridger.wordpress.com;
#X text 623 -39 io_cdc_pinguino_control_Port;
#X text 444 104 Contains all logic to:;
#X text 444 120 *Open a Serial Port;
#X text 444 133 *Send a 3 word packet with formatted data;
#X text 451 147 (see document included);
#X text 445 162 *Distribute received packets to;
#X text 451 173 Digital or Analog report patches;
#X text 221 427 This section distributes received packets;
#X text 542 494 Pack and send data;
#X text 448 52 24/07/2013;
#X floatatom 768 390 3 0 0 0 - - -;
#X floatatom 795 390 3 0 0 0 - - -;
#X floatatom 822 390 3 0 0 0 - - -;
#X floatatom 849 390 3 0 0 0 - - -;
#X floatatom 876 391 5 0 0 0 - - -;
#X obj 768 364 unpack 0 0 0 0 0;
#X floatatom 647 311 9 0 0 0 - - -;
#X floatatom 707 337 9 0 0 0 - - -;
#X text 540 311 bytes received:;
#X text 555 335 total bytes received:;
#X text 725 389 from:;
#X obj 647 278 route received total from multicast;
#X text 852 435 <--first connect to a host and port;
#X msg 688 436 connect 192.168.0.4 10001;
#X obj 671 468 prepend send;
#X msg 673 417 disconnect;
#X msg 243 20 bits 8;
#X text 292 19 databits 5 \, 6 \, 7 \, 8;
#X msg 265 -11 pollintervall 1;
#X text 271 -41 set poll interval for read in ms;
#X text 267 -28 (default is 1 tick 10ms);
#X msg 185 -3 retries 10;
#X obj 557 248 udpreceive 10001;
#X obj 672 496 udpsend;
#X msg 557 225 port your_port_number;
#X obj 185 -41 r conIn;
#X text 447 188 * If udp objects do not create \, open PD help files
on the subject and refresh this patch.;
#X connect 0 0 1 0;
#X connect 1 0 3 0;
#X connect 2 0 6 0;
#X connect 3 0 2 0;
#X connect 4 0 2 0;
#X connect 6 0 19 0;
#X connect 6 0 72 0;
#X connect 7 0 6 0;
#X connect 8 0 9 0;
#X connect 9 0 16 0;
#X connect 9 0 18 0;
#X connect 10 0 6 0;
#X connect 11 0 41 0;
#X connect 12 0 15 0;
#X connect 12 0 18 0;
#X connect 13 0 16 0;
#X connect 13 0 17 0;
#X connect 14 0 20 0;
#X connect 15 0 14 1;
#X connect 15 0 25 0;
#X connect 16 0 14 1;
#X connect 17 0 11 1;
#X connect 17 0 42 0;
#X connect 18 0 11 1;
#X connect 19 0 8 0;
#X connect 19 0 13 0;
#X connect 19 0 12 0;
#X connect 19 1 14 0;
#X connect 19 1 11 0;
#X connect 21 0 14 1;
#X connect 23 0 16 0;
#X connect 24 0 18 0;
#X connect 25 0 22 0;
#X connect 26 0 7 0;
#X connect 27 0 6 0;
#X connect 28 0 27 0;
#X connect 32 0 36 0;
#X connect 33 0 32 0;
#X connect 34 0 32 1;
#X connect 37 0 33 0;
#X connect 38 0 34 0;
#X connect 39 0 40 0;
#X connect 39 0 35 0;
#X connect 40 0 32 2;
#X connect 42 0 43 0;
#X connect 44 0 11 1;
#X connect 63 0 58 0;
#X connect 63 1 59 0;
#X connect 63 2 60 0;
#X connect 63 3 61 0;
#X connect 63 4 62 0;
#X connect 69 0 64 0;
#X connect 69 1 65 0;
#X connect 69 2 63 0;
#X connect 71 0 81 0;
#X connect 72 0 81 0;
#X connect 73 0 81 0;
#X connect 74 0 6 0;
#X connect 76 0 6 0;
#X connect 79 0 6 0;
#X connect 80 0 36 0;
#X connect 80 1 69 0;
#X connect 82 0 80 0;
#X connect 83 0 79 0;
#X connect 83 0 76 0;
#X connect 83 0 74 0;
