#N canvas 0 0 1284 686 10;
#X obj 483 70 loadbang;
#X obj 1105 217 s IO_D1_R;
#X obj 1080 235 s IO_D2_R;
#X obj 1061 254 s IO_D3_R;
#X obj 1043 273 s IO_D4_R;
#X obj 1024 292 s IO_D5_R;
#X obj 1006 311 s IO_D6_R;
#X obj 987 330 s IO_D7_R;
#X obj 969 349 s IO_D8_R;
#X obj 950 368 s IO_D9_R;
#X obj 932 387 s IO_D10_R;
#X obj 912 407 s IO_D11_R;
#X obj 895 425 s IO_D12_R;
#X obj 876 444 s IO_D13_R;
#X obj 1115 198 s IO_D0_R;
#X obj 1027 197 s IO_A0_R;
#X obj 1010 215 s IO_A1_R;
#X obj 992 234 s IO_A2_R;
#X obj 973 253 s IO_A3_R;
#X obj 954 272 s IO_A4_R;
#X obj 936 291 s IO_A5_R;
#X obj 918 310 s IO_A6_R;
#X obj 899 329 s IO_A7_R;
#X obj 481 49 bng 15 250 50 0 empty empty empty 17 7 0 10 -262144 -1
-1;
#X obj 944 177 float 0;
#X obj 904 236 s IO_D2_R;
#X obj 885 255 s IO_D3_R;
#X obj 867 274 s IO_D4_R;
#X obj 848 293 s IO_D5_R;
#X obj 830 312 s IO_D6_R;
#X obj 811 331 s IO_D7_R;
#X obj 793 350 s IO_D8_R;
#X obj 774 369 s IO_D9_R;
#X obj 756 388 s IO_D10_R;
#X obj 736 408 s IO_D11_R;
#X obj 719 426 s IO_D12_R;
#X obj 700 445 s IO_D13_R;
#X obj 939 199 s IO_D0_R;
#X obj 851 198 s IO_A0_R;
#X obj 834 216 s IO_A1_R;
#X obj 816 235 s IO_A2_R;
#X obj 797 254 s IO_A3_R;
#X obj 778 273 s IO_A4_R;
#X obj 760 292 s IO_A5_R;
#X obj 742 311 s IO_A6_R;
#X obj 723 330 s IO_A7_R;
#X obj 1124 172 float 1;
#X obj 245 196 s S_D0_R;
#X obj 227 214 s S_D1_R;
#X obj 210 233 s S_D2_R;
#X obj 191 252 s S_D3_R;
#X obj 173 271 s S_D4_R;
#X obj 154 290 s S_D5_R;
#X obj 136 309 s S_D6_R;
#X obj 117 328 s S_D7_R;
#X obj 99 347 s S_D8_R;
#X obj 80 366 s S_D9_R;
#X obj 62 385 s S_D10_R;
#X obj 42 405 s S_D11_R;
#X obj 25 423 s S_D12_R;
#X obj 6 442 s S_D13_R;
#X obj 158 195 s S_A0_R;
#X obj 140 213 s S_A1_R;
#X obj 122 232 s S_A2_R;
#X obj 103 251 s S_A3_R;
#X obj 84 270 s S_A4_R;
#X obj 66 289 s S_A5_R;
#X obj 48 308 s S_A6_R;
#X obj 29 327 s S_A7_R;
#X obj 442 194 s S_D0_R;
#X obj 429 212 s S_D1_R;
#X obj 395 229 s S_D2_R;
#X obj 376 248 s S_D3_R;
#X obj 358 267 s S_D4_R;
#X obj 339 286 s S_D5_R;
#X obj 321 305 s S_D6_R;
#X obj 302 324 s S_D7_R;
#X obj 284 343 s S_D8_R;
#X obj 265 362 s S_D9_R;
#X obj 247 381 s S_D10_R;
#X obj 227 401 s S_D11_R;
#X obj 210 419 s S_D12_R;
#X obj 191 438 s S_D13_R;
#X obj 343 191 s S_A0_R;
#X obj 324 209 s S_A1_R;
#X obj 307 228 s S_A2_R;
#X obj 288 247 s S_A3_R;
#X obj 269 266 s S_A4_R;
#X obj 251 285 s S_A5_R;
#X obj 233 304 s S_A6_R;
#X obj 214 323 s S_A7_R;
#X obj 602 253 s A_A0_R;
#X obj 584 271 s A_A1_R;
#X obj 566 290 s A_A2_R;
#X obj 547 309 s A_A3_R;
#X obj 528 328 s A_A4_R;
#X obj 510 347 s A_A5_R;
#X obj 492 366 s A_A6_R;
#X obj 473 385 s A_A7_R;
#X obj 618 220 float 1;
#X obj 511 253 s A_A0_R;
#X obj 493 271 s A_A1_R;
#X obj 475 290 s A_A2_R;
#X obj 456 309 s A_A3_R;
#X obj 437 328 s A_A4_R;
#X obj 419 347 s A_A5_R;
#X obj 401 366 s A_A6_R;
#X obj 382 385 s A_A7_R;
#X obj 527 220 float 0;
#X obj 483 95 t b b b b b b b;
#X obj 481 23 r reset;
#X obj 82 146 float 1;
#X obj 82 167 s IO_D2_R;
#X obj 440 166 float 1;
#X obj 254 170 float 0;
#X obj 676 40 s conIn;
#X obj 846 75 float 0;
#X obj 846 100 s S_LED2_R;
#X obj 687 257 s A_A0_RI;
#X obj 669 275 s A_A1_RI;
#X obj 651 294 s A_A2_RI;
#X obj 632 313 s A_A3_RI;
#X obj 613 332 s A_A4_RI;
#X obj 595 351 s A_A5_RI;
#X obj 577 371 s A_A6_RI;
#X obj 558 389 s A_A7_RI;
#X obj 703 224 float 0;
#X text 800 7 io_cdc_pinguino_control_init;
#X text 800 23 Initialize all toggles and numbers to known states;
#X text 1144 -10 by: "I/O" - Roberto Becerra;
#X text 1143 5 io_robertob@hotmail.com;
#X text 1145 20 http://iobridger.wordpress.com;
#X text 1144 33 24/07/2013;
#X obj 924 218 s IO_D1_R;
#X connect 0 0 109 0;
#X connect 23 0 0 0;
#X connect 24 0 25 0;
#X connect 24 0 26 0;
#X connect 24 0 27 0;
#X connect 24 0 28 0;
#X connect 24 0 29 0;
#X connect 24 0 30 0;
#X connect 24 0 31 0;
#X connect 24 0 32 0;
#X connect 24 0 33 0;
#X connect 24 0 34 0;
#X connect 24 0 35 0;
#X connect 24 0 37 0;
#X connect 24 0 38 0;
#X connect 24 0 39 0;
#X connect 24 0 40 0;
#X connect 24 0 41 0;
#X connect 24 0 42 0;
#X connect 24 0 43 0;
#X connect 24 0 44 0;
#X connect 24 0 45 0;
#X connect 24 0 36 0;
#X connect 24 0 133 0;
#X connect 46 0 2 0;
#X connect 46 0 3 0;
#X connect 46 0 4 0;
#X connect 46 0 5 0;
#X connect 46 0 6 0;
#X connect 46 0 7 0;
#X connect 46 0 8 0;
#X connect 46 0 9 0;
#X connect 46 0 10 0;
#X connect 46 0 11 0;
#X connect 46 0 12 0;
#X connect 46 0 14 0;
#X connect 46 0 15 0;
#X connect 46 0 16 0;
#X connect 46 0 17 0;
#X connect 46 0 18 0;
#X connect 46 0 19 0;
#X connect 46 0 20 0;
#X connect 46 0 21 0;
#X connect 46 0 22 0;
#X connect 46 0 13 0;
#X connect 46 0 1 0;
#X connect 99 0 91 0;
#X connect 99 0 92 0;
#X connect 99 0 93 0;
#X connect 99 0 94 0;
#X connect 99 0 95 0;
#X connect 99 0 96 0;
#X connect 99 0 97 0;
#X connect 99 0 98 0;
#X connect 108 0 100 0;
#X connect 108 0 101 0;
#X connect 108 0 102 0;
#X connect 108 0 103 0;
#X connect 108 0 104 0;
#X connect 108 0 105 0;
#X connect 108 0 106 0;
#X connect 108 0 107 0;
#X connect 109 0 111 0;
#X connect 109 1 114 0;
#X connect 109 2 113 0;
#X connect 109 3 108 0;
#X connect 109 4 99 0;
#X connect 109 4 126 0;
#X connect 109 5 24 0;
#X connect 109 6 46 0;
#X connect 109 6 115 0;
#X connect 109 6 116 0;
#X connect 110 0 23 0;
#X connect 111 0 112 0;
#X connect 113 0 69 0;
#X connect 113 0 70 0;
#X connect 113 0 71 0;
#X connect 113 0 72 0;
#X connect 113 0 73 0;
#X connect 113 0 74 0;
#X connect 113 0 75 0;
#X connect 113 0 76 0;
#X connect 113 0 77 0;
#X connect 113 0 78 0;
#X connect 113 0 79 0;
#X connect 113 0 80 0;
#X connect 113 0 81 0;
#X connect 113 0 82 0;
#X connect 113 0 83 0;
#X connect 113 0 84 0;
#X connect 113 0 85 0;
#X connect 113 0 86 0;
#X connect 113 0 87 0;
#X connect 113 0 88 0;
#X connect 113 0 89 0;
#X connect 113 0 90 0;
#X connect 114 0 47 0;
#X connect 114 0 48 0;
#X connect 114 0 49 0;
#X connect 114 0 50 0;
#X connect 114 0 51 0;
#X connect 114 0 52 0;
#X connect 114 0 53 0;
#X connect 114 0 54 0;
#X connect 114 0 55 0;
#X connect 114 0 56 0;
#X connect 114 0 57 0;
#X connect 114 0 58 0;
#X connect 114 0 59 0;
#X connect 114 0 60 0;
#X connect 114 0 61 0;
#X connect 114 0 62 0;
#X connect 114 0 63 0;
#X connect 114 0 64 0;
#X connect 114 0 65 0;
#X connect 114 0 66 0;
#X connect 114 0 67 0;
#X connect 114 0 68 0;
#X connect 116 0 117 0;
#X connect 126 0 118 0;
#X connect 126 0 119 0;
#X connect 126 0 120 0;
#X connect 126 0 121 0;
#X connect 126 0 122 0;
#X connect 126 0 123 0;
#X connect 126 0 124 0;
#X connect 126 0 125 0;
