#N canvas 0 0 1284 686 10;
#X obj 41 164 s b3;
#X obj 41 70 change;
#X obj 104 67 change;
#X obj 165 67 change;
#X obj 226 67 change;
#X obj 286 65 change;
#X obj 347 64 change;
#X obj 408 63 change;
#X obj 469 63 change;
#X obj 551 64 change;
#X obj 612 64 change;
#X obj 673 64 change;
#X obj 745 61 change;
#X obj 814 62 change;
#X obj 884 62 change;
#X obj 41 46 r IO_D0;
#X obj 104 46 r IO_D1;
#X obj 165 46 r IO_D2;
#X obj 226 46 r IO_D3;
#X obj 286 44 r IO_D4;
#X obj 347 43 r IO_D5;
#X obj 408 43 r IO_D6;
#X obj 469 43 r IO_D7;
#X obj 551 42 r IO_D8;
#X obj 612 42 r IO_D9;
#X obj 673 42 r IO_D10;
#X obj 745 39 r IO_D11;
#X obj 814 41 r IO_D12;
#X obj 884 41 r IO_D13;
#X obj 41 245 s b2;
#X obj 41 206 s b1;
#X obj 104 162 s b3;
#X obj 104 249 s b2;
#X obj 104 204 s b1;
#X obj 165 162 s b3;
#X obj 165 243 s b2;
#X obj 165 204 s b1;
#X obj 226 161 s b3;
#X obj 226 242 s b2;
#X obj 226 203 s b1;
#X obj 286 161 s b3;
#X obj 286 242 s b2;
#X obj 286 203 s b1;
#X obj 347 160 s b3;
#X obj 347 241 s b2;
#X obj 347 202 s b1;
#X obj 408 159 s b3;
#X obj 408 240 s b2;
#X obj 408 201 s b1;
#X obj 469 159 s b3;
#X obj 469 241 s b2;
#X obj 469 201 s b1;
#X obj 551 160 s b3;
#X obj 551 241 s b2;
#X obj 551 202 s b1;
#X obj 612 160 s b3;
#X obj 612 241 s b2;
#X obj 612 202 s b1;
#X obj 673 159 s b3;
#X obj 673 240 s b2;
#X obj 673 201 s b1;
#X obj 745 158 s b3;
#X obj 745 239 s b2;
#X obj 745 200 s b1;
#X obj 814 158 s b3;
#X obj 814 239 s b2;
#X obj 814 200 s b1;
#X obj 884 160 s b3;
#X obj 884 241 s b2;
#X obj 884 202 s b1;
#X obj 40 226 float 2;
#X obj 41 186 float 246;
#X obj 104 181 float 246;
#X obj 165 184 float 246;
#X obj 226 183 float 246;
#X obj 286 183 float 246;
#X obj 347 182 float 246;
#X obj 408 181 float 246;
#X obj 469 181 float 246;
#X obj 551 182 float 244;
#X obj 612 182 float 244;
#X obj 104 225 float 3;
#X obj 165 224 float 4;
#X obj 226 223 float 5;
#X obj 286 223 float 6;
#X obj 347 222 float 7;
#X obj 408 221 float 8;
#X obj 469 221 float 11;
#X obj 551 222 float 13;
#X obj 612 222 float 14;
#X obj 745 220 float 8;
#X obj 814 220 float 7;
#X obj 884 222 float 6;
#X obj 44 287 r S_D0;
#X obj 107 287 r S_D1;
#X obj 168 287 r S_D2;
#X obj 229 287 r S_D3;
#X obj 289 285 r S_D4;
#X obj 350 285 r S_D5;
#X obj 411 284 r S_D6;
#X obj 472 284 r S_D7;
#X obj 554 283 r S_D8;
#X obj 615 283 r S_D9;
#X obj 676 283 r S_D10;
#X obj 737 280 r S_D11;
#X obj 797 282 r S_D12;
#X obj 858 282 r S_D13;
#X obj 42 962 r S_A0;
#X obj 105 962 r S_A1;
#X obj 170 962 r S_A2;
#X obj 237 962 r S_A3;
#X obj 302 960 r S_A4;
#X obj 365 959 r S_A5;
#X obj 430 957 r S_A6;
#X obj 494 958 r S_A7;
#X obj 42 545 r IO_A0;
#X obj 105 545 r IO_A1;
#X obj 170 545 r IO_A2;
#X obj 237 545 r IO_A3;
#X obj 302 543 r IO_A4;
#X obj 365 542 r IO_A5;
#X obj 430 540 r IO_A6;
#X obj 494 541 r IO_A7;
#X obj 660 725 s b3;
#X obj 659 615 change;
#X obj 659 810 s b2;
#X obj 660 767 s b1;
#X obj 659 787 float 1;
#X obj 659 554 r A_A0;
#X obj 659 659 select 1;
#X obj 659 701 float 2;
#X floatatom 647 678 5 0 0 0 - - -;
#X obj 697 680 bng 15 250 50 0 empty empty empty 17 7 0 10 -262144
-1 -1;
#X obj 731 725 s b3;
#X obj 730 615 change;
#X obj 730 810 s b2;
#X obj 731 767 s b1;
#X obj 730 659 select 1;
#X obj 730 701 float 2;
#X floatatom 718 678 5 0 0 0 - - -;
#X obj 767 678 bng 15 250 50 0 empty empty empty 17 7 0 10 -262144
-1 -1;
#X obj 806 724 s b3;
#X obj 805 614 change;
#X obj 805 809 s b2;
#X obj 806 766 s b1;
#X obj 805 658 select 1;
#X obj 805 700 float 2;
#X floatatom 793 677 5 0 0 0 - - -;
#X obj 842 677 bng 15 250 50 0 empty empty empty 17 7 0 10 -262144
-1 -1;
#X obj 878 724 s b3;
#X obj 877 614 change;
#X obj 877 809 s b2;
#X obj 878 766 s b1;
#X obj 877 658 select 1;
#X obj 877 700 float 2;
#X floatatom 865 677 5 0 0 0 - - -;
#X obj 914 677 bng 15 250 50 0 empty empty empty 17 7 0 10 -262144
-1 -1;
#X obj 948 724 s b3;
#X obj 947 614 change;
#X obj 947 809 s b2;
#X obj 948 766 s b1;
#X obj 947 658 select 1;
#X obj 947 700 float 2;
#X floatatom 935 677 5 0 0 0 - - -;
#X obj 984 677 bng 15 250 50 0 empty empty empty 17 7 0 10 -262144
-1 -1;
#X obj 1019 724 s b3;
#X obj 1018 614 change;
#X obj 1018 809 s b2;
#X obj 1019 766 s b1;
#X obj 1018 658 select 1;
#X obj 1018 700 float 2;
#X floatatom 1006 677 5 0 0 0 - - -;
#X obj 1055 677 bng 15 250 50 0 empty empty empty 17 7 0 10 -262144
-1 -1;
#X obj 1094 723 s b3;
#X obj 1093 613 change;
#X obj 1093 808 s b2;
#X obj 1094 765 s b1;
#X obj 1093 657 select 1;
#X obj 1093 699 float 2;
#X floatatom 1081 676 5 0 0 0 - - -;
#X obj 1130 676 bng 15 250 50 0 empty empty empty 17 7 0 10 -262144
-1 -1;
#X obj 1166 723 s b3;
#X obj 1165 613 change;
#X obj 1165 808 s b2;
#X obj 1166 765 s b1;
#X obj 1165 657 select 1;
#X obj 1165 699 float 2;
#X floatatom 1153 676 5 0 0 0 - - -;
#X obj 1210 677 bng 15 250 50 0 empty empty empty 17 7 0 10 -262144
-1 -1;
#X obj 730 554 r A_A1;
#X obj 805 552 r A_A2;
#X obj 877 552 r A_A3;
#X obj 947 553 r A_A4;
#X obj 1018 553 r A_A5;
#X obj 1093 552 r A_A6;
#X obj 1165 552 r A_A7;
#X obj 730 787 float 2;
#X obj 805 786 float 3;
#X obj 877 786 float 4;
#X obj 947 786 float 8;
#X obj 1018 784 float 9;
#X obj 1093 785 float 11;
#X obj 1165 785 float 10;
#X obj 647 533 r IO_A0;
#X obj 718 532 r IO_A1;
#X obj 793 532 r IO_A2;
#X obj 865 532 r IO_A3;
#X obj 935 531 r IO_A4;
#X obj 1006 530 r IO_A5;
#X obj 1081 529 r IO_A6;
#X obj 1153 528 r IO_A7;
#X obj 884 137 t b b f;
#X obj 986 351 change;
#X obj 986 394 s b3;
#X obj 986 475 s b2;
#X obj 986 436 s b1;
#X obj 982 61 change;
#X obj 982 156 s b3;
#X obj 982 237 s b2;
#X obj 982 198 s b1;
#X obj 986 371 t b b f;
#X obj 982 133 t b b f;
#X text 984 11 LED 2;
#X obj 985 286 r S_LED2;
#X obj 986 456 float 1;
#X obj 982 40 r IO_LED2;
#X obj 982 218 float 1;
#X obj 982 178 float 246;
#X text 55 22 D0;
#X text 117 22 D1;
#X text 181 20 D2;
#X text 243 20 D3;
#X text 303 20 D4;
#X text 365 20 D5;
#X text 424 19 D6;
#X text 486 19 D7;
#X text 564 16 D8;
#X text 626 16 D9;
#X text 690 14 D10;
#X text 763 14 D11;
#X text 832 11 D12;
#X text 892 10 D13;
#X text 891 24 (LED 1);
#X obj 814 135 t b b f;
#X obj 745 135 t b b f;
#X obj 673 136 t b b f;
#X obj 612 137 t b b f;
#X obj 551 137 t b b f;
#X obj 469 136 t b b f;
#X obj 408 136 t b b f;
#X obj 347 137 t b b f;
#X obj 286 138 t b b f;
#X obj 226 138 t b b f;
#X obj 165 139 t b b f;
#X obj 104 136 t b b f;
#X obj 41 141 t b b f;
#X obj 44 403 s b3;
#X obj 44 358 change;
#X obj 107 358 change;
#X obj 168 358 change;
#X obj 229 358 change;
#X obj 289 356 change;
#X obj 350 355 change;
#X obj 411 354 change;
#X obj 472 354 change;
#X obj 554 355 change;
#X obj 615 355 change;
#X obj 676 355 change;
#X obj 737 352 change;
#X obj 797 353 change;
#X obj 858 345 change;
#X obj 44 484 s b2;
#X obj 44 445 s b1;
#X obj 107 401 s b3;
#X obj 107 482 s b2;
#X obj 107 443 s b1;
#X obj 168 401 s b3;
#X obj 168 482 s b2;
#X obj 168 443 s b1;
#X obj 229 400 s b3;
#X obj 229 481 s b2;
#X obj 229 442 s b1;
#X obj 289 400 s b3;
#X obj 289 481 s b2;
#X obj 289 442 s b1;
#X obj 350 399 s b3;
#X obj 350 480 s b2;
#X obj 350 441 s b1;
#X obj 411 398 s b3;
#X obj 411 479 s b2;
#X obj 411 440 s b1;
#X obj 472 398 s b3;
#X obj 472 480 s b2;
#X obj 472 440 s b1;
#X obj 554 399 s b3;
#X obj 554 480 s b2;
#X obj 554 441 s b1;
#X obj 615 399 s b3;
#X obj 615 480 s b2;
#X obj 615 441 s b1;
#X obj 676 398 s b3;
#X obj 676 479 s b2;
#X obj 676 440 s b1;
#X obj 737 397 s b3;
#X obj 737 478 s b2;
#X obj 737 439 s b1;
#X obj 797 397 s b3;
#X obj 797 478 s b2;
#X obj 797 439 s b1;
#X obj 859 403 s b3;
#X obj 859 484 s b2;
#X obj 859 445 s b1;
#X obj 43 465 float 2;
#X obj 107 463 float 3;
#X obj 168 463 float 4;
#X obj 229 462 float 5;
#X obj 289 462 float 6;
#X obj 350 461 float 7;
#X obj 411 460 float 8;
#X obj 472 460 float 11;
#X obj 554 461 float 13;
#X obj 615 461 float 14;
#X obj 737 459 float 8;
#X obj 797 459 float 7;
#X obj 859 465 float 6;
#X obj 859 386 t b b f;
#X obj 797 374 t b b f;
#X obj 737 374 t b b f;
#X obj 676 375 t b b f;
#X obj 615 376 t b b f;
#X obj 554 376 t b b f;
#X obj 472 375 t b b f;
#X obj 411 375 t b b f;
#X obj 350 376 t b b f;
#X obj 289 377 t b b f;
#X obj 229 377 t b b f;
#X obj 168 378 t b b f;
#X obj 107 378 t b b f;
#X obj 44 380 t b b f;
#X text 202 936 CON 1 & CON 2 DIGITAL SET STATE;
#X text 56 519 A0;
#X text 118 519 A1;
#X text 186 517 A2;
#X text 254 517 A3;
#X text 319 517 A4;
#X text 383 517 A5;
#X text 446 514 A6;
#X text 511 515 A7;
#X text 659 508 A0;
#X text 730 507 A1;
#X text 806 504 A2;
#X text 883 505 A3;
#X text 952 506 A4;
#X text 1019 504 A5;
#X text 1100 503 A6;
#X text 1168 500 A7;
#X obj 38 662 s b3;
#X obj 42 618 change;
#X obj 105 618 change;
#X obj 170 618 change;
#X obj 237 618 change;
#X obj 302 616 change;
#X obj 365 615 change;
#X obj 430 612 change;
#X obj 494 613 change;
#X obj 27 755 s b2;
#X obj 38 710 s b1;
#X obj 101 660 s b3;
#X obj 92 754 s b2;
#X obj 101 708 s b1;
#X obj 166 660 s b3;
#X obj 158 752 s b2;
#X obj 166 708 s b1;
#X obj 233 659 s b3;
#X obj 224 752 s b2;
#X obj 233 707 s b1;
#X obj 302 660 s b3;
#X obj 302 741 s b2;
#X obj 302 702 s b1;
#X obj 365 659 s b3;
#X obj 365 740 s b2;
#X obj 365 701 s b1;
#X obj 430 656 s b3;
#X obj 430 737 s b2;
#X obj 430 698 s b1;
#X obj 494 657 s b3;
#X obj 494 739 s b2;
#X obj 494 699 s b1;
#X obj 494 634 t b b f;
#X obj 430 633 t b b f;
#X obj 237 637 t b b f;
#X obj 170 638 t b b f;
#X obj 105 638 t b b f;
#X obj 42 640 t b b f;
#X obj 37 688 float 244;
#X obj 107 681 float 244;
#X obj 172 681 float 244;
#X obj 239 680 float 244;
#X obj 302 682 float 244;
#X obj 365 681 float 244;
#X obj 430 678 float 244;
#X obj 494 679 float 244;
#X obj 28 733 float 1;
#X obj 92 731 float 2;
#X obj 157 731 float 3;
#X obj 224 730 float 4;
#X obj 302 722 float 8;
#X obj 365 721 float 9;
#X obj 430 718 float 11;
#X obj 494 719 float 10;
#X obj 42 1119 s b3;
#X obj 42 1074 change;
#X obj 105 1074 change;
#X obj 170 1074 change;
#X obj 237 1074 change;
#X obj 302 1072 change;
#X obj 365 1069 change;
#X obj 430 1068 change;
#X obj 494 1069 change;
#X obj 39 1200 s b2;
#X obj 42 1161 s b1;
#X obj 105 1117 s b3;
#X obj 102 1198 s b2;
#X obj 105 1159 s b1;
#X obj 170 1117 s b3;
#X obj 167 1198 s b2;
#X obj 170 1159 s b1;
#X obj 237 1116 s b3;
#X obj 234 1197 s b2;
#X obj 237 1158 s b1;
#X obj 302 1116 s b3;
#X obj 299 1197 s b2;
#X obj 302 1158 s b1;
#X obj 430 1112 s b3;
#X obj 427 1193 s b2;
#X obj 430 1154 s b1;
#X obj 494 1113 s b3;
#X obj 491 1195 s b2;
#X obj 494 1155 s b1;
#X obj 494 1090 t b b f;
#X obj 430 1089 t b b f;
#X obj 237 1093 t b b f;
#X obj 170 1094 t b b f;
#X obj 105 1094 t b b f;
#X obj 42 1096 t b b f;
#X obj 38 1181 float 1;
#X obj 102 1179 float 2;
#X obj 167 1179 float 3;
#X obj 234 1178 float 4;
#X obj 299 1178 float 8;
#X obj -77 -31 cnv 50 100 50 empty empty PINGUINO_PIC32_OTG 20 12 1
14 -262144 -13381 0;
#X obj -79 -10 cnv 15 100 60 empty empty CONTROL_MESSAGES_LOGIC 20
12 1 14 -262144 -13381 0;
#X obj 721 883 r A_D0;
#X obj 740 990 -;
#X obj 721 907 t b f f;
#X obj 767 949 int;
#X obj 704 932 float 224;
#X obj 740 1012 s b3;
#X obj 808 969 s b2;
#X obj 704 956 s b1;
#X obj 896 986 -;
#X obj 877 903 t b f f;
#X obj 923 945 int;
#X obj 896 1008 s b3;
#X obj 964 965 s b2;
#X obj 860 952 s b1;
#X obj 1104 968 * 256;
#X obj 1076 988 -;
#X obj 1057 905 t b f f;
#X obj 1103 947 int;
#X obj 1076 1010 s b3;
#X obj 1144 967 s b2;
#X obj 1040 954 s b1;
#X obj 877 880 r A_D1;
#X obj 1057 881 r A_D2;
#X obj 860 928 float 225;
#X obj 1040 931 float 226;
#X obj 1023 981 float 0;
#X obj 1023 1029 s IO_D2_R;
#X obj 689 986 float 0;
#X obj 846 983 float 0;
#X obj 689 1034 s IO_D0_R;
#X obj 846 1031 s IO_D1_R;
#X obj 868 366 s S_D13_R;
#X text -34 108 comment;
#X obj 64 93 == 1;
#X obj 130 92 == 1;
#X obj 191 92 == 1;
#X obj 252 90 == 1;
#X obj 311 91 == 1;
#X obj 376 90 == 1;
#X obj 438 91 == 1;
#X obj 508 89 == 1;
#X obj 575 89 == 1;
#X obj 643 88 == 1;
#X obj 707 88 == 1;
#X obj 778 87 == 1;
#X obj 844 87 == 1;
#X obj 923 87 == 1;
#X obj 64 115 s 0d;
#X obj 134 115 s 1d;
#X obj 191 114 s 2d;
#X obj 252 112 s 3d;
#X obj 311 113 s 4d;
#X obj 376 112 s 5d;
#X obj 440 112 s 6d;
#X obj 508 111 s 7d;
#X obj 575 111 s 8d;
#X obj 643 110 s 9d;
#X obj 707 110 s 10d;
#X obj 778 109 s 11d;
#X obj 853 109 s 12d;
#X obj 923 109 s 13d;
#X obj 44 336 spigot;
#X obj 29 92 == 0;
#X obj 29 114 s 0s;
#X obj 55 311 r 0s;
#X obj 107 334 spigot;
#X obj 168 335 spigot;
#X obj 229 333 spigot;
#X obj 289 333 spigot;
#X obj 350 331 spigot;
#X obj 411 332 spigot;
#X obj 472 330 spigot;
#X obj 554 331 spigot;
#X obj 615 329 spigot;
#X obj 676 330 spigot;
#X obj 737 328 spigot;
#X obj 797 328 spigot;
#X obj 858 326 spigot;
#X obj 118 309 r 1s;
#X obj 179 310 r 2s;
#X obj 240 308 r 3s;
#X obj 300 308 r 4s;
#X obj 361 307 r 5s;
#X obj 422 307 r 6s;
#X obj 483 305 r 7s;
#X obj 565 306 r 8s;
#X obj 626 304 r 9s;
#X obj 687 305 r 10s;
#X obj 748 303 r 11s;
#X obj 808 303 r 12s;
#X obj 869 301 r 13s;
#X obj 101 91 == 0;
#X obj 161 92 == 0;
#X obj 101 113 s 1s;
#X obj 161 114 s 2s;
#X obj 222 91 == 0;
#X obj 281 90 == 0;
#X obj 282 113 s 4s;
#X obj 345 91 == 0;
#X obj 345 113 s 5s;
#X obj 407 92 == 0;
#X obj 407 114 s 6s;
#X obj 473 91 == 0;
#X obj 473 111 s 7s;
#X obj 544 91 == 0;
#X obj 545 111 s 8s;
#X obj 609 88 == 0;
#X obj 609 110 s 9s;
#X obj 677 88 == 0;
#X obj 672 110 s 10s;
#X obj 747 87 == 0;
#X obj 743 108 s 11s;
#X obj 814 85 == 0;
#X obj 815 109 s 12s;
#X obj 888 87 == 0;
#X obj 888 109 s 13s;
#X obj 222 113 s 3s;
#X text 1067 -29 by: "I/O" - Roberto Becerra;
#X text 1066 -14 io_robertob@hotmail.com;
#X text 1068 1 http://iobridger.wordpress.com;
#X text -59 315 CON 4 & CON 5;
#X text -57 348 DIGITAL STATE;
#X text -65 100 CON 4 & CON 5;
#X text -49 124 DIGITAL;
#X text -60 151 INPUT/OUTPUT;
#X text -54 180 SELECTION;
#X text -63 624 CON 1 & CON 2;
#X text -61 650 ANALOG PORT;
#X text -62 673 INPUT/OUTPUT;
#X text -56 696 SELECTION;
#X text -60 1103 CON 1 & CON 2;
#X text -58 1129 DIGITAL STATE;
#X text 568 626 CON 1 & CON 2;
#X text 580 650 SET AS;
#X text 572 674 ANALOG INPUT;
#X text 797 847 SEND ANALOG VALUES IN TWO BYTES;
#X obj 672 576 == 0;
#X obj 672 596 s 0A;
#X obj 739 574 == 0;
#X obj 814 573 == 0;
#X obj 884 573 == 0;
#X obj 962 575 == 0;
#X obj 1029 573 == 0;
#X obj 1104 572 == 0;
#X obj 1174 572 == 0;
#X obj 739 594 s 1A;
#X obj 814 593 s 2A;
#X obj 884 593 s 3A;
#X obj 962 595 s 4A;
#X obj 1029 593 s 5A;
#X obj 1104 592 s 6A;
#X obj 1174 591 s 7A;
#X obj 52 984 r 0A;
#X obj 42 1003 spigot;
#X obj 105 1004 spigot;
#X obj 170 1003 spigot;
#X obj 237 1004 spigot;
#X obj 302 1002 spigot;
#X obj 365 1001 spigot;
#X obj 430 1000 spigot;
#X obj 495 1001 spigot;
#X obj 115 985 r 1A;
#X obj 180 984 r 2A;
#X obj 247 985 r 3A;
#X obj 312 983 r 4A;
#X obj 376 980 r 5A;
#X obj 72 570 == 1;
#X obj 138 569 == 1;
#X obj 203 569 == 1;
#X obj 270 567 == 1;
#X obj 334 568 == 1;
#X obj 401 567 == 1;
#X obj 469 565 == 1;
#X obj 540 565 == 1;
#X obj 37 569 == 0;
#X obj 109 568 == 0;
#X obj 173 569 == 0;
#X obj 240 568 == 0;
#X obj 305 568 == 0;
#X obj 370 568 == 0;
#X obj 436 567 == 0;
#X obj 505 567 == 0;
#X obj 72 592 s 14d;
#X obj 137 591 s 15d;
#X obj 203 591 s 16d;
#X obj 270 589 s 17d;
#X obj 334 590 s 18d;
#X obj 401 589 s 19d;
#X obj 469 587 s 20d;
#X obj 540 587 s 21d;
#X obj 37 591 s 0i;
#X obj 109 590 s 1i;
#X obj 173 591 s 2i;
#X obj 240 590 s 3i;
#X obj 305 590 s 4i;
#X obj 370 590 s 5i;
#X obj 436 589 s 6i;
#X obj 505 587 s 7i;
#X obj 42 1048 spigot;
#X obj 105 1049 spigot;
#X obj 170 1048 spigot;
#X obj 237 1049 spigot;
#X obj 302 1047 spigot;
#X obj 365 1046 spigot;
#X obj 430 1045 spigot;
#X obj 495 1046 spigot;
#X obj 52 1029 r 0i;
#X obj 115 1030 r 1i;
#X obj 180 1029 r 2i;
#X obj 247 1030 r 3i;
#X obj 312 1028 r 4i;
#X obj 376 1025 r 5i;
#X obj 1068 56 io_cdc_pinguino_control_init;
#X obj 440 981 r 6A;
#X obj 505 982 r 7A;
#X obj 440 1026 r 6i;
#X obj 505 1027 r 7i;
#X obj 1068 116 io_cdc_pinguino_control_Dreports;
#X obj 1068 77 io_cdc_pinguino_control_Port;
#X obj 1068 97 io_cdc_pinguino_control_Areports;
#X obj 661 747 float 244;
#X obj 731 747 float 244;
#X obj 806 746 float 244;
#X obj 878 746 float 244;
#X obj 948 746 float 244;
#X obj 1019 746 float 244;
#X obj 1094 745 float 244;
#X obj 1166 745 float 244;
#X obj 428 1174 float 11;
#X obj 491 1175 float 10;
#X text 1069 14 24/07/2013;
#X obj 44 425 float 146;
#X obj 107 423 float 146;
#X obj 168 423 float 146;
#X obj 229 422 float 146;
#X obj 289 422 float 146;
#X obj 350 421 float 146;
#X obj 411 420 float 146;
#X obj 472 420 float 146;
#X obj 554 421 float 144;
#X obj 615 421 float 144;
#X obj 986 416 float 146;
#X obj 42 1141 float 144;
#X obj 106 1138 float 144;
#X obj 170 1139 float 144;
#X obj 237 1138 float 144;
#X obj 302 1138 float 144;
#X obj 430 1134 float 144;
#X obj 494 1135 float 144;
#X obj 746 180 float 249;
#X obj 814 180 float 249;
#X obj 884 182 float 249;
#X obj 737 419 float 149;
#X obj 797 419 float 149;
#X obj 859 425 float 149;
#X obj 302 1093 t f b b f;
#X obj 318 1246 s b3;
#X obj 299 1329 s b2;
#X obj 298 1287 s b1;
#X obj 298 1220 t b b f;
#X obj 298 1267 float 146;
#X obj 301 1308 float 9;
#X obj 365 1114 s b3;
#X obj 362 1195 s b2;
#X obj 365 1156 s b1;
#X obj 365 1136 float 144;
#X obj 365 1091 t f b b f;
#X obj 384 1243 s b3;
#X obj 360 1327 s b2;
#X obj 361 1285 s b1;
#X obj 361 1218 t b b f;
#X obj 361 1265 float 146;
#X obj 362 1176 float 9;
#X obj 368 1308 float 10;
#X obj 673 221 float 9;
#X obj 676 460 float 9;
#X obj 676 420 float 149;
#X obj 673 181 float 249;
#X obj 1018 635 t b b f;
#X obj 1165 634 t b b f;
#X obj 805 637 t b b f;
#X obj 876 637 t b b f;
#X obj 948 637 t b b f;
#X obj 659 638 t b b f;
#X obj 729 637 t b b f;
#X obj 1092 635 t b b f;
#X obj 331 808 s b3;
#X obj 303 891 s b2;
#X obj 303 850 s b1;
#X obj 303 783 t b b f;
#X obj 303 870 float 9;
#X obj 399 807 s b3;
#X obj 367 890 s b2;
#X obj 366 848 s b1;
#X obj 366 781 t b b f;
#X obj 366 868 float 10;
#X obj 302 637 t f b b f;
#X obj 365 637 t f b b f;
#X obj 1103 927 / 256;
#X obj 923 925 / 256;
#X obj 767 929 / 256;
#X obj 768 970 * 256;
#X obj 924 966 * 256;
#X obj 302 830 float 246;
#X obj 366 828 float 246;
#X connect 1 0 255 0;
#X connect 1 0 485 0;
#X connect 1 0 514 0;
#X connect 2 0 254 0;
#X connect 2 0 486 0;
#X connect 2 0 543 0;
#X connect 3 0 253 0;
#X connect 3 0 487 0;
#X connect 3 0 544 0;
#X connect 4 0 252 0;
#X connect 4 0 488 0;
#X connect 4 0 547 0;
#X connect 5 0 251 0;
#X connect 5 0 489 0;
#X connect 5 0 548 0;
#X connect 6 0 250 0;
#X connect 6 0 490 0;
#X connect 6 0 550 0;
#X connect 7 0 249 0;
#X connect 7 0 491 0;
#X connect 7 0 552 0;
#X connect 8 0 248 0;
#X connect 8 0 492 0;
#X connect 8 0 554 0;
#X connect 9 0 247 0;
#X connect 9 0 493 0;
#X connect 9 0 556 0;
#X connect 10 0 246 0;
#X connect 10 0 494 0;
#X connect 10 0 558 0;
#X connect 11 0 245 0;
#X connect 11 0 495 0;
#X connect 11 0 560 0;
#X connect 12 0 244 0;
#X connect 12 0 496 0;
#X connect 12 0 562 0;
#X connect 13 0 243 0;
#X connect 13 0 497 0;
#X connect 13 0 564 0;
#X connect 14 0 211 0;
#X connect 14 0 498 0;
#X connect 14 0 566 0;
#X connect 15 0 1 0;
#X connect 16 0 2 0;
#X connect 17 0 3 0;
#X connect 18 0 4 0;
#X connect 19 0 5 0;
#X connect 20 0 6 0;
#X connect 21 0 7 0;
#X connect 22 0 8 0;
#X connect 23 0 9 0;
#X connect 24 0 10 0;
#X connect 25 0 11 0;
#X connect 26 0 12 0;
#X connect 27 0 13 0;
#X connect 28 0 14 0;
#X connect 70 0 29 0;
#X connect 71 0 30 0;
#X connect 72 0 33 0;
#X connect 73 0 36 0;
#X connect 74 0 39 0;
#X connect 75 0 42 0;
#X connect 76 0 45 0;
#X connect 77 0 48 0;
#X connect 78 0 51 0;
#X connect 79 0 54 0;
#X connect 80 0 57 0;
#X connect 81 0 32 0;
#X connect 82 0 35 0;
#X connect 83 0 38 0;
#X connect 84 0 41 0;
#X connect 85 0 44 0;
#X connect 86 0 47 0;
#X connect 87 0 50 0;
#X connect 88 0 53 0;
#X connect 89 0 56 0;
#X connect 90 0 62 0;
#X connect 91 0 65 0;
#X connect 92 0 68 0;
#X connect 93 0 513 0;
#X connect 94 0 517 0;
#X connect 95 0 518 0;
#X connect 96 0 519 0;
#X connect 97 0 520 0;
#X connect 98 0 521 0;
#X connect 99 0 522 0;
#X connect 100 0 523 0;
#X connect 101 0 524 0;
#X connect 102 0 525 0;
#X connect 103 0 526 0;
#X connect 104 0 527 0;
#X connect 105 0 528 0;
#X connect 106 0 529 0;
#X connect 107 0 605 0;
#X connect 108 0 606 0;
#X connect 109 0 607 0;
#X connect 110 0 608 0;
#X connect 111 0 609 0;
#X connect 112 0 610 0;
#X connect 113 0 611 0;
#X connect 114 0 612 0;
#X connect 115 0 626 0;
#X connect 115 0 618 0;
#X connect 115 0 357 0;
#X connect 116 0 627 0;
#X connect 116 0 619 0;
#X connect 116 0 358 0;
#X connect 117 0 628 0;
#X connect 117 0 620 0;
#X connect 117 0 359 0;
#X connect 118 0 629 0;
#X connect 118 0 621 0;
#X connect 118 0 360 0;
#X connect 119 0 630 0;
#X connect 119 0 622 0;
#X connect 119 0 361 0;
#X connect 120 0 631 0;
#X connect 120 0 623 0;
#X connect 120 0 362 0;
#X connect 121 0 632 0;
#X connect 121 0 624 0;
#X connect 121 0 363 0;
#X connect 122 0 633 0;
#X connect 122 0 625 0;
#X connect 122 0 364 0;
#X connect 124 0 735 0;
#X connect 127 0 125 0;
#X connect 128 0 124 0;
#X connect 128 0 588 0;
#X connect 129 0 130 0;
#X connect 129 1 132 0;
#X connect 130 0 123 0;
#X connect 131 0 123 0;
#X connect 132 0 131 0;
#X connect 134 0 736 0;
#X connect 137 0 138 0;
#X connect 137 1 140 0;
#X connect 138 0 133 0;
#X connect 139 0 133 0;
#X connect 140 0 139 0;
#X connect 142 0 732 0;
#X connect 145 0 146 0;
#X connect 145 1 148 0;
#X connect 146 0 141 0;
#X connect 147 0 141 0;
#X connect 148 0 147 0;
#X connect 150 0 733 0;
#X connect 153 0 154 0;
#X connect 153 1 156 0;
#X connect 154 0 149 0;
#X connect 155 0 149 0;
#X connect 156 0 155 0;
#X connect 158 0 734 0;
#X connect 161 0 162 0;
#X connect 161 1 164 0;
#X connect 162 0 157 0;
#X connect 163 0 157 0;
#X connect 164 0 163 0;
#X connect 166 0 730 0;
#X connect 169 0 170 0;
#X connect 169 1 172 0;
#X connect 170 0 165 0;
#X connect 171 0 165 0;
#X connect 172 0 171 0;
#X connect 174 0 737 0;
#X connect 177 0 178 0;
#X connect 177 1 180 0;
#X connect 178 0 173 0;
#X connect 179 0 173 0;
#X connect 180 0 179 0;
#X connect 182 0 731 0;
#X connect 185 0 186 0;
#X connect 185 1 188 0;
#X connect 186 0 181 0;
#X connect 187 0 181 0;
#X connect 188 0 187 0;
#X connect 189 0 134 0;
#X connect 189 0 590 0;
#X connect 190 0 142 0;
#X connect 190 0 591 0;
#X connect 191 0 150 0;
#X connect 191 0 592 0;
#X connect 192 0 158 0;
#X connect 192 0 593 0;
#X connect 193 0 166 0;
#X connect 193 0 594 0;
#X connect 194 0 174 0;
#X connect 194 0 595 0;
#X connect 195 0 182 0;
#X connect 195 0 596 0;
#X connect 196 0 135 0;
#X connect 197 0 143 0;
#X connect 198 0 151 0;
#X connect 199 0 159 0;
#X connect 200 0 167 0;
#X connect 201 0 175 0;
#X connect 202 0 183 0;
#X connect 203 0 131 0;
#X connect 204 0 139 0;
#X connect 205 0 147 0;
#X connect 206 0 155 0;
#X connect 207 0 163 0;
#X connect 208 0 171 0;
#X connect 209 0 179 0;
#X connect 210 0 187 0;
#X connect 211 0 703 0;
#X connect 211 1 92 0;
#X connect 211 2 67 0;
#X connect 212 0 220 0;
#X connect 216 0 221 0;
#X connect 220 0 693 0;
#X connect 220 1 224 0;
#X connect 220 2 213 0;
#X connect 221 0 227 0;
#X connect 221 1 226 0;
#X connect 221 2 217 0;
#X connect 223 0 212 0;
#X connect 224 0 214 0;
#X connect 225 0 216 0;
#X connect 226 0 218 0;
#X connect 227 0 219 0;
#X connect 243 0 702 0;
#X connect 243 1 91 0;
#X connect 243 2 64 0;
#X connect 244 0 701 0;
#X connect 244 1 90 0;
#X connect 244 2 61 0;
#X connect 245 0 729 0;
#X connect 245 1 726 0;
#X connect 245 2 58 0;
#X connect 246 0 80 0;
#X connect 246 1 89 0;
#X connect 246 2 55 0;
#X connect 247 0 79 0;
#X connect 247 1 88 0;
#X connect 247 2 52 0;
#X connect 248 0 78 0;
#X connect 248 1 87 0;
#X connect 248 2 49 0;
#X connect 249 0 77 0;
#X connect 249 1 86 0;
#X connect 249 2 46 0;
#X connect 250 0 76 0;
#X connect 250 1 85 0;
#X connect 250 2 43 0;
#X connect 251 0 75 0;
#X connect 251 1 84 0;
#X connect 251 2 40 0;
#X connect 252 0 74 0;
#X connect 252 1 83 0;
#X connect 252 2 37 0;
#X connect 253 0 73 0;
#X connect 253 1 82 0;
#X connect 253 2 34 0;
#X connect 254 0 72 0;
#X connect 254 1 81 0;
#X connect 254 2 31 0;
#X connect 255 0 71 0;
#X connect 255 1 70 0;
#X connect 255 2 0 0;
#X connect 257 0 338 0;
#X connect 258 0 337 0;
#X connect 259 0 336 0;
#X connect 260 0 335 0;
#X connect 261 0 334 0;
#X connect 262 0 333 0;
#X connect 263 0 332 0;
#X connect 264 0 331 0;
#X connect 265 0 330 0;
#X connect 266 0 329 0;
#X connect 267 0 328 0;
#X connect 268 0 327 0;
#X connect 269 0 326 0;
#X connect 270 0 325 0;
#X connect 270 0 483 0;
#X connect 312 0 271 0;
#X connect 313 0 274 0;
#X connect 314 0 277 0;
#X connect 315 0 280 0;
#X connect 316 0 283 0;
#X connect 317 0 286 0;
#X connect 318 0 289 0;
#X connect 319 0 292 0;
#X connect 320 0 295 0;
#X connect 321 0 298 0;
#X connect 322 0 304 0;
#X connect 323 0 307 0;
#X connect 324 0 310 0;
#X connect 325 0 706 0;
#X connect 325 1 324 0;
#X connect 325 2 309 0;
#X connect 326 0 705 0;
#X connect 326 1 323 0;
#X connect 326 2 306 0;
#X connect 327 0 704 0;
#X connect 327 1 322 0;
#X connect 327 2 303 0;
#X connect 328 0 728 0;
#X connect 328 1 727 0;
#X connect 328 2 300 0;
#X connect 329 0 692 0;
#X connect 329 1 321 0;
#X connect 329 2 297 0;
#X connect 330 0 691 0;
#X connect 330 1 320 0;
#X connect 330 2 294 0;
#X connect 331 0 690 0;
#X connect 331 1 319 0;
#X connect 331 2 291 0;
#X connect 332 0 689 0;
#X connect 332 1 318 0;
#X connect 332 2 288 0;
#X connect 333 0 688 0;
#X connect 333 1 317 0;
#X connect 333 2 285 0;
#X connect 334 0 687 0;
#X connect 334 1 316 0;
#X connect 334 2 282 0;
#X connect 335 0 686 0;
#X connect 335 1 315 0;
#X connect 335 2 279 0;
#X connect 336 0 685 0;
#X connect 336 1 314 0;
#X connect 336 2 276 0;
#X connect 337 0 684 0;
#X connect 337 1 313 0;
#X connect 337 2 273 0;
#X connect 338 0 683 0;
#X connect 338 1 312 0;
#X connect 338 2 256 0;
#X connect 357 0 393 0;
#X connect 358 0 392 0;
#X connect 359 0 391 0;
#X connect 360 0 390 0;
#X connect 361 0 748 0;
#X connect 362 0 749 0;
#X connect 363 0 389 0;
#X connect 364 0 388 0;
#X connect 388 0 401 0;
#X connect 388 1 409 0;
#X connect 388 2 385 0;
#X connect 389 0 400 0;
#X connect 389 1 408 0;
#X connect 389 2 382 0;
#X connect 390 0 397 0;
#X connect 390 1 405 0;
#X connect 390 2 373 0;
#X connect 391 0 396 0;
#X connect 391 1 404 0;
#X connect 391 2 370 0;
#X connect 392 0 395 0;
#X connect 392 1 403 0;
#X connect 392 2 367 0;
#X connect 393 0 394 0;
#X connect 393 1 402 0;
#X connect 393 2 356 0;
#X connect 394 0 366 0;
#X connect 395 0 369 0;
#X connect 396 0 372 0;
#X connect 397 0 375 0;
#X connect 398 0 378 0;
#X connect 399 0 381 0;
#X connect 400 0 384 0;
#X connect 401 0 387 0;
#X connect 402 0 365 0;
#X connect 403 0 368 0;
#X connect 404 0 371 0;
#X connect 405 0 374 0;
#X connect 406 0 377 0;
#X connect 407 0 380 0;
#X connect 408 0 383 0;
#X connect 409 0 386 0;
#X connect 411 0 444 0;
#X connect 412 0 443 0;
#X connect 413 0 442 0;
#X connect 414 0 441 0;
#X connect 415 0 707 0;
#X connect 416 0 718 0;
#X connect 417 0 440 0;
#X connect 418 0 439 0;
#X connect 439 0 700 0;
#X connect 439 1 681 0;
#X connect 439 2 436 0;
#X connect 440 0 699 0;
#X connect 440 1 680 0;
#X connect 440 2 433 0;
#X connect 441 0 697 0;
#X connect 441 1 448 0;
#X connect 441 2 427 0;
#X connect 442 0 696 0;
#X connect 442 1 447 0;
#X connect 442 2 424 0;
#X connect 443 0 695 0;
#X connect 443 1 446 0;
#X connect 443 2 421 0;
#X connect 444 0 694 0;
#X connect 444 1 445 0;
#X connect 444 2 410 0;
#X connect 445 0 419 0;
#X connect 446 0 422 0;
#X connect 447 0 425 0;
#X connect 448 0 428 0;
#X connect 449 0 431 0;
#X connect 452 0 454 0;
#X connect 453 0 457 0;
#X connect 454 0 456 0;
#X connect 454 0 479 0;
#X connect 454 1 453 0;
#X connect 454 2 752 0;
#X connect 455 0 458 0;
#X connect 455 0 753 0;
#X connect 456 0 459 0;
#X connect 460 0 463 0;
#X connect 461 0 475 0;
#X connect 461 0 480 0;
#X connect 461 1 460 0;
#X connect 461 2 751 0;
#X connect 462 0 464 0;
#X connect 462 0 754 0;
#X connect 466 0 467 1;
#X connect 467 0 470 0;
#X connect 468 0 476 0;
#X connect 468 0 477 0;
#X connect 468 1 467 0;
#X connect 468 2 750 0;
#X connect 469 0 466 0;
#X connect 469 0 471 0;
#X connect 473 0 461 0;
#X connect 474 0 468 0;
#X connect 475 0 465 0;
#X connect 476 0 472 0;
#X connect 477 0 478 0;
#X connect 479 0 481 0;
#X connect 480 0 482 0;
#X connect 485 0 499 0;
#X connect 486 0 500 0;
#X connect 487 0 501 0;
#X connect 488 0 502 0;
#X connect 489 0 503 0;
#X connect 490 0 504 0;
#X connect 491 0 505 0;
#X connect 492 0 506 0;
#X connect 493 0 507 0;
#X connect 494 0 508 0;
#X connect 495 0 509 0;
#X connect 496 0 510 0;
#X connect 497 0 511 0;
#X connect 498 0 512 0;
#X connect 513 0 257 0;
#X connect 514 0 515 0;
#X connect 516 0 513 1;
#X connect 517 0 258 0;
#X connect 518 0 259 0;
#X connect 519 0 260 0;
#X connect 520 0 261 0;
#X connect 521 0 262 0;
#X connect 522 0 263 0;
#X connect 523 0 264 0;
#X connect 524 0 265 0;
#X connect 525 0 266 0;
#X connect 526 0 267 0;
#X connect 527 0 268 0;
#X connect 528 0 269 0;
#X connect 529 0 270 0;
#X connect 530 0 517 1;
#X connect 531 0 518 1;
#X connect 532 0 519 1;
#X connect 533 0 520 1;
#X connect 534 0 521 1;
#X connect 535 0 522 1;
#X connect 536 0 523 1;
#X connect 537 0 524 1;
#X connect 538 0 525 1;
#X connect 539 0 526 1;
#X connect 540 0 527 1;
#X connect 541 0 528 1;
#X connect 542 0 529 1;
#X connect 543 0 545 0;
#X connect 544 0 546 0;
#X connect 547 0 568 0;
#X connect 548 0 549 0;
#X connect 550 0 551 0;
#X connect 552 0 553 0;
#X connect 554 0 555 0;
#X connect 556 0 557 0;
#X connect 558 0 559 0;
#X connect 560 0 561 0;
#X connect 562 0 563 0;
#X connect 564 0 565 0;
#X connect 566 0 567 0;
#X connect 588 0 589 0;
#X connect 590 0 597 0;
#X connect 591 0 598 0;
#X connect 592 0 599 0;
#X connect 593 0 600 0;
#X connect 594 0 601 0;
#X connect 595 0 602 0;
#X connect 596 0 603 0;
#X connect 604 0 605 1;
#X connect 605 0 650 0;
#X connect 606 0 651 0;
#X connect 607 0 652 0;
#X connect 608 0 653 0;
#X connect 609 0 654 0;
#X connect 610 0 655 0;
#X connect 611 0 656 0;
#X connect 612 0 657 0;
#X connect 613 0 606 1;
#X connect 614 0 607 1;
#X connect 615 0 608 1;
#X connect 616 0 609 1;
#X connect 617 0 610 1;
#X connect 618 0 634 0;
#X connect 619 0 635 0;
#X connect 620 0 636 0;
#X connect 621 0 637 0;
#X connect 622 0 638 0;
#X connect 623 0 639 0;
#X connect 624 0 640 0;
#X connect 625 0 641 0;
#X connect 626 0 642 0;
#X connect 627 0 643 0;
#X connect 628 0 644 0;
#X connect 629 0 645 0;
#X connect 630 0 646 0;
#X connect 631 0 647 0;
#X connect 632 0 648 0;
#X connect 633 0 649 0;
#X connect 650 0 411 0;
#X connect 651 0 412 0;
#X connect 652 0 413 0;
#X connect 653 0 414 0;
#X connect 654 0 415 0;
#X connect 655 0 416 0;
#X connect 656 0 417 0;
#X connect 657 0 418 0;
#X connect 658 0 650 1;
#X connect 659 0 651 1;
#X connect 660 0 652 1;
#X connect 661 0 653 1;
#X connect 662 0 654 1;
#X connect 663 0 655 1;
#X connect 665 0 611 1;
#X connect 666 0 612 1;
#X connect 667 0 656 1;
#X connect 668 0 657 1;
#X connect 672 0 126 0;
#X connect 673 0 136 0;
#X connect 674 0 144 0;
#X connect 675 0 152 0;
#X connect 676 0 160 0;
#X connect 677 0 168 0;
#X connect 678 0 176 0;
#X connect 679 0 184 0;
#X connect 680 0 434 0;
#X connect 681 0 437 0;
#X connect 683 0 272 0;
#X connect 684 0 275 0;
#X connect 685 0 278 0;
#X connect 686 0 281 0;
#X connect 687 0 284 0;
#X connect 688 0 287 0;
#X connect 689 0 290 0;
#X connect 690 0 293 0;
#X connect 691 0 296 0;
#X connect 692 0 299 0;
#X connect 693 0 215 0;
#X connect 694 0 420 0;
#X connect 695 0 423 0;
#X connect 696 0 426 0;
#X connect 697 0 429 0;
#X connect 698 0 432 0;
#X connect 699 0 435 0;
#X connect 700 0 438 0;
#X connect 701 0 63 0;
#X connect 702 0 66 0;
#X connect 703 0 69 0;
#X connect 704 0 305 0;
#X connect 705 0 308 0;
#X connect 706 0 311 0;
#X connect 707 0 711 0;
#X connect 707 1 698 0;
#X connect 707 2 449 0;
#X connect 707 3 430 0;
#X connect 711 0 712 0;
#X connect 711 1 713 0;
#X connect 711 2 708 0;
#X connect 712 0 710 0;
#X connect 713 0 709 0;
#X connect 717 0 716 0;
#X connect 718 0 722 0;
#X connect 718 1 717 0;
#X connect 718 2 724 0;
#X connect 718 3 714 0;
#X connect 722 0 723 0;
#X connect 722 1 725 0;
#X connect 722 2 719 0;
#X connect 723 0 721 0;
#X connect 724 0 715 0;
#X connect 725 0 720 0;
#X connect 726 0 59 0;
#X connect 727 0 301 0;
#X connect 728 0 302 0;
#X connect 729 0 60 0;
#X connect 730 0 677 0;
#X connect 730 1 200 0;
#X connect 730 2 169 0;
#X connect 731 0 679 0;
#X connect 731 1 202 0;
#X connect 731 2 185 0;
#X connect 732 0 674 0;
#X connect 732 1 197 0;
#X connect 732 2 145 0;
#X connect 733 0 675 0;
#X connect 733 1 198 0;
#X connect 733 2 153 0;
#X connect 734 0 676 0;
#X connect 734 1 199 0;
#X connect 734 2 161 0;
#X connect 735 0 672 0;
#X connect 735 1 127 0;
#X connect 735 2 129 0;
#X connect 736 0 673 0;
#X connect 736 1 196 0;
#X connect 736 2 137 0;
#X connect 737 0 678 0;
#X connect 737 1 201 0;
#X connect 737 2 177 0;
#X connect 741 0 755 0;
#X connect 741 1 742 0;
#X connect 741 2 738 0;
#X connect 742 0 739 0;
#X connect 746 0 756 0;
#X connect 746 1 747 0;
#X connect 746 2 743 0;
#X connect 747 0 744 0;
#X connect 748 0 741 0;
#X connect 748 1 398 0;
#X connect 748 2 406 0;
#X connect 748 3 376 0;
#X connect 749 0 746 0;
#X connect 749 1 399 0;
#X connect 749 2 407 0;
#X connect 749 3 379 0;
#X connect 750 0 469 0;
#X connect 751 0 462 0;
#X connect 752 0 455 0;
#X connect 753 0 453 1;
#X connect 754 0 460 1;
#X connect 755 0 740 0;
#X connect 756 0 745 0;
