#N canvas 159 0 626 638 10;
#X obj 52 43 t f f;
#X obj 334 101 float 0;
#X obj 52 401 spigot;
#X obj 69 362 spigot;
#X obj 86 324 spigot;
#X obj 104 285 spigot;
#X obj 121 247 spigot;
#X obj 139 208 spigot;
#X obj 156 170 spigot;
#X obj 173 131 spigot;
#X obj 190 341 spigot;
#X obj 207 302 spigot;
#X obj 226 264 spigot;
#X obj 243 225 spigot;
#X obj 260 187 spigot;
#X obj 278 148 spigot;
#X obj 295 262 spigot;
#X obj 313 223 spigot;
#X obj 341 36 r b200;
#X obj 334 122 s blockA;
#X obj 313 60 counter 15;
#X obj 334 80 select 15;
#X obj 52 25 r analog;
#X obj 63 382 r A_A0;
#X obj 80 342 r A_A0;
#X obj 97 305 r A_A1;
#X obj 115 266 r A_A1;
#X obj 136 228 r A_A2;
#X obj 146 189 r A_A2;
#X obj 167 151 r A_A3;
#X obj 184 112 r A_A3;
#X obj 201 322 r A_A4;
#X obj 218 283 r A_A4;
#X obj 237 245 r A_A5;
#X obj 254 206 r A_A5;
#X obj 52 88 demux 1 2 3 4 5 6 7 8 9 10 11 12 13 14 15 16;
#X obj 69 497 +;
#X obj 104 477 +;
#X obj 139 454 +;
#X obj 173 434 +;
#X obj 207 415 +;
#X obj 243 395 +;
#X obj 278 372 +;
#X obj 313 352 +;
#X obj 69 534 s A_A0_RI;
#X obj 104 515 s A_A1_RI;
#X obj 139 496 s A_A2_RI;
#X obj 173 477 s A_A3_RI;
#X obj 207 457 s A_A4_RI;
#X obj 243 439 s A_A5_RI;
#X obj 278 420 s A_A7_RI;
#X obj 313 402 s A_A6_RI;
#X obj 324 204 r A_A6;
#X obj 307 243 r A_A6;
#X obj 289 129 r A_A7;
#X obj 272 168 r A_A7;
#X text 409 28 by: "I/O" - Roberto Becerra;
#X text 408 43 io_robertob@hotmail.com;
#X text 410 58 http://iobridger.wordpress.com;
#X text 406 138 distributes demultiplexes to direct it to;
#X text 407 106 io_cdc_pinguino_control_Areports;
#X text 406 122 Receives Analog data from COM Port and;
#X text 406 151 corresponding number boxes.;
#X text 411 75 24/07/2013;
#X obj 52 465 * 32;
#X obj 87 445 * 32;
#X obj 121 422 * 32;
#X obj 156 402 * 32;
#X obj 190 383 * 32;
#X obj 226 363 * 32;
#X obj 260 340 * 32;
#X obj 295 320 * 32;
#X connect 0 0 35 0;
#X connect 0 1 20 0;
#X connect 1 0 19 0;
#X connect 2 0 64 0;
#X connect 3 0 36 0;
#X connect 4 0 65 0;
#X connect 5 0 37 0;
#X connect 6 0 66 0;
#X connect 7 0 38 0;
#X connect 8 0 67 0;
#X connect 9 0 39 0;
#X connect 10 0 68 0;
#X connect 11 0 40 0;
#X connect 12 0 69 0;
#X connect 13 0 41 0;
#X connect 14 0 70 0;
#X connect 15 0 42 0;
#X connect 16 0 71 0;
#X connect 17 0 43 0;
#X connect 18 0 20 2;
#X connect 20 0 21 0;
#X connect 20 0 35 1;
#X connect 21 0 1 0;
#X connect 22 0 0 0;
#X connect 23 0 2 1;
#X connect 24 0 3 1;
#X connect 25 0 4 1;
#X connect 26 0 5 1;
#X connect 27 0 6 1;
#X connect 28 0 7 1;
#X connect 29 0 8 1;
#X connect 30 0 9 1;
#X connect 31 0 10 1;
#X connect 32 0 11 1;
#X connect 33 0 12 1;
#X connect 34 0 13 1;
#X connect 35 0 2 0;
#X connect 35 1 3 0;
#X connect 35 2 4 0;
#X connect 35 3 5 0;
#X connect 35 4 6 0;
#X connect 35 5 7 0;
#X connect 35 6 8 0;
#X connect 35 7 9 0;
#X connect 35 8 10 0;
#X connect 35 9 11 0;
#X connect 35 10 12 0;
#X connect 35 11 13 0;
#X connect 35 12 14 0;
#X connect 35 13 15 0;
#X connect 35 14 16 0;
#X connect 35 15 17 0;
#X connect 36 0 44 0;
#X connect 37 0 45 0;
#X connect 38 0 46 0;
#X connect 39 0 47 0;
#X connect 40 0 48 0;
#X connect 41 0 49 0;
#X connect 42 0 50 0;
#X connect 43 0 51 0;
#X connect 52 0 17 1;
#X connect 53 0 16 1;
#X connect 54 0 15 1;
#X connect 55 0 14 1;
#X connect 64 0 36 1;
#X connect 65 0 37 1;
#X connect 66 0 38 1;
#X connect 67 0 39 1;
#X connect 68 0 40 1;
#X connect 69 0 41 1;
#X connect 70 0 42 1;
#X connect 71 0 43 1;
