#N canvas 0 0 837 497 10;
#X floatatom 79 269 5 0 0 0 - Port -;
#X obj 79 292 prepend open;
#X msg 79 339 open 6;
#X obj 79 315 prepend set;
#X obj 52 315 bng 15 250 50 0 empty Open empty 17 7 0 10 -262144 -1
-1;
#X text 117 267 Port Number;
#X msg 201 303 devices;
#X obj 248 358 r toCom;
#X obj 200 283 bng 15 250 50 0 empty Devices empty 17 7 0 10 -262144
-1 -1;
#X msg 280 325 close;
#X obj 280 301 bng 15 250 50 0 empty Close empty 17 7 0 10 -262144
-1 -1;
#X text -42 292 Open Selected Port;
#X text 301 302 Close Port;
#X text 217 283 Print Devices;
#X obj 28 102 s toCom;
#X text 398 74 by: "I/O" - Roberto Becerra;
#X text 397 89 io_robertob@hotmail.com;
#X text 399 104 http://iobridger.wordpress.com;
#X text 399 116 24/07/2013;
#X floatatom 224 202 3 0 0 0 - - -;
#X floatatom 247 202 3 0 0 0 - - -;
#X floatatom 270 202 3 0 0 0 - - -;
#X floatatom 293 202 3 0 0 0 - - -;
#X floatatom 317 202 5 0 0 0 - - -;
#X obj 224 173 unpack 0 0 0 0 0;
#X floatatom 121 132 9 0 0 0 - - -;
#X floatatom 172 150 9 0 0 0 - - -;
#X text 11 139 bytes received:;
#X text 26 163 total bytes received:;
#X text 181 201 from:;
#X obj 121 106 route received total from multicast;
#X text 467 449 <--first connect to a host and port;
#X msg 311 451 connect 192.168.0.4 10001;
#X obj 248 413 prepend send;
#X msg 281 433 disconnect;
#X text 393 178 *Connect Pinguino to Pure Data with USB Cable;
#X text 393 196 *Click on Print Devices to see number the number of
availaboe Port;
#X text 393 226 *Click on Open Selected Port to start serial communication
with Pinguino;
#X text 394 258 *Click on connect to enable Sending of UDP packets
to the Android device with the specified IP address;
#X text 395 288 *Check Port number is the same here and in Android
Device;
#X text 396 303 *Pure Data seems to have a bug and udpsend and udpreceive
do not create in the beginning \, to fix this \, look for the help/documentation
patches about network and udp \, open them and even copy thos objects
here \, that should refresh the patch.;
#X text 397 366 *Help me finding bugs.;
#X obj 247 389 comport 9600;
#X obj 28 76 udpreceive 10001;
#X obj 337 484 udpsend;
#X obj 28 124 bng 15 250 50 0 empty empty empty 17 7 0 10 -262144 -1
-1;
#X msg 75 414 pollintervall 1;
#X text -120 433 set poll interval for read in ms;
#X msg 78 371 retries 10;
#X text -55 389 how many times to retry a lost connection;
#X text 81 433 (default is 1 tick 10ms);
#X text 383 22 io_android_pinguino_control;
#X connect 0 0 1 0;
#X connect 1 0 3 0;
#X connect 2 0 42 0;
#X connect 3 0 2 0;
#X connect 4 0 2 0;
#X connect 6 0 42 0;
#X connect 7 0 42 0;
#X connect 8 0 6 0;
#X connect 9 0 42 0;
#X connect 10 0 9 0;
#X connect 24 0 19 0;
#X connect 24 1 20 0;
#X connect 24 2 21 0;
#X connect 24 3 22 0;
#X connect 24 4 23 0;
#X connect 30 0 25 0;
#X connect 30 1 26 0;
#X connect 30 2 24 0;
#X connect 32 0 44 0;
#X connect 33 0 44 0;
#X connect 34 0 44 0;
#X connect 42 0 33 0;
#X connect 43 0 14 0;
#X connect 43 0 45 0;
#X connect 43 1 30 0;
#X connect 46 0 42 0;
#X connect 48 0 42 0;
